{
  "accessors": [
    {
      "bufferView": 2,
      "componentType": 5126,
      "count": 18057,
      "max": [
        0.8631880283355713,
        0.22119399905204773,
        -3.9999998989515007e-05
      ],
      "min": [
        -0.85316002368927,
        -0.2062309980392456,
        -2.1153900623321533
      ],
      "type": "VEC3"
    },
    {
      "bufferView": 2,
      "byteOffset": 216684,
      "componentType": 5126,
      "count": 18057,
      "max": [
        0.9999358654022217,
        0.9999589323997498,
        0.9999985694885254
      ],
      "min": [
        -0.9999546408653259,
        -0.9999772906303406,
        -0.9999997615814209
      ],
      "type": "VEC3"
    },
    {
      "bufferView": 1,
      "componentType": 5126,
      "count": 18057,
      "max": [
        -0.004997999873012304,
        1.9967039823532104
      ],
      "min": [
        -0.9951480031013489,
        1.0037519931793213
      ],
      "type": "VEC2"
    },
    {
      "bufferView": 0,
      "componentType": 5125,
      "count": 99720,
      "type": "SCALAR"
    }
  ],
  "asset": {
    "extras": {
      "author": "664230048 (https://sketchfab.com/664230048)",
      "license": "SKETCHFAB Standard (https://sketchfab.com/licenses)",
      "source": "https://sketchfab.com/3d-models/664230048-human-body-eda54f2d79fe4781ad994bdfc5a28bc8",
      "title": "664230048 Human-body"
    },
    "generator": "Sketchfab-16.72.0",
    "version": "2.0"
  },
  "bufferViews": [
    {
      "buffer": 0,
      "byteLength": 398880,
      "name": "floatBufferViews",
      "target": 34963
    },
    {
      "buffer": 0,
      "byteLength": 144456,
      "byteOffset": 398880,
      "byteStride": 8,
      "name": "floatBufferViews",
      "target": 34962
    },
    {
      "buffer": 0,
      "byteLength": 433368,
      "byteOffset": 543336,
      "byteStride": 12,
      "name": "floatBufferViews",
      "target": 34962
    }
  ],
  "buffers": [
    {
      "byteLength": 976704,
      "uri": "scene.bin"
    }
  ],
  "materials": [
    {
      "doubleSided": true,
      "name": "Material.001",
      "pbrMetallicRoughness": {
        "metallicFactor": 0.0,
        "roughnessFactor": 0.5
      }
    }
  ],
  "meshes": [
    {
      "name": "Object_0",
      "primitives": [
        {
          "attributes": {
            "NORMAL": 1,
            "POSITION": 0,
            "TEXCOORD_0": 2
          },
          "indices": 3,
          "material": 0,
          "mode": 4
        }
      ]
    }
  ],
  "nodes": [
    {
      "children": [
        1
      ],
      "matrix": [
        0.4000000059604645,
        -1.1331077541622206e-16,
        -2.516004636104398e-32,
        0.0,
        0.0,
        8.88178432935015e-17,
        -0.4000000059604645,
        0.0,
        1.1331077541622206e-16,
        0.4000000059604645,
        8.88178432935015e-17,
        0.0,
        0.0,
        0.0,
        0.0,
        1.0
      ],
      "name": "Sketchfab_model"
    },
    {
      "children": [
        2
      ],
      "name": "root"
    },
    {
      "children": [
        3
      ],
      "matrix": [
        1.0,
        0.0,
        0.0,
        0.0,
        0.0,
        2.220446049250313e-16,
        1.0,
        0.0,
        0.0,
        -1.0,
        2.220446049250313e-16,
        0.0,
        0.0,
        0.0,
        0.0,
        1.0
      ],
      "name": "GLTF_SceneRootNode"
    },
    {
      "children": [
        4
      ],
      "matrix": [
        2.112835645675659,
        0.0,
        0.0,
        0.0,
        0.0,
        -3.561974616485138e-07,
        2.112835645675629,
        0.0,
        0.0,
        -2.112835645675629,
        -3.561974616485138e-07,
        0.0,
        0.0,
        0.0,
        0.0,
        1.0
      ],
      "name": "BaseSpiderMan_0"
    },
    {
      "mesh": 0,
      "name": "Object_4"
    }
  ],
  "scene": 0,
  "scenes": [
    {
      "name": "Sketchfab_Scene",
      "nodes": [
        0
      ]
    }
  ]
}
